<?xml version="1.0" encoding="utf-8"?>
<!-- Generator: Adobe Illustrator 24.0.2, SVG Export Plug-In . SVG Version: 6.00 Build 0)  -->
<svg version="1.1" id="图层_1" xmlns="http://www.w3.org/2000/svg" xmlns:xlink="http://www.w3.org/1999/xlink" x="0px" y="0px"
	 viewBox="0 0 720 200" style="enable-background:new 0 0 720 200;" xml:space="preserve">
<style type="text/css">
	.st0{fill:#FFCF01;}
</style>
<path class="st0" d="M42.8,108.9c-0.5-1.2-1-7.1-1-10.6c0-18.9,11.5-34.9,41-34.9h15.5c0,0-3.5,1.8-11.5,8.3
	C79.3,78.1,42.8,108.9,42.8,108.9z M165.3,94.7L221.8,45h-28l-42.5,37.8l-11-8.3h-26.5l24,20.7l-18.5,18.3
	c-9.5,9.5-23,22.5-42.5,22.5c-8,0-19-1.8-25-10.1l91-80.4h-55c-34,0-51.5,22.5-51.5,50.3c0,5.9,1,13,2.5,16.6l-38,32.5h29l17.5-15.4
	c6.5,9.5,20,17.7,34,17.7c23.5,0,45-17.7,52.5-24.8l17-16l45,38.4h31.5C227.2,144.8,165.3,94.7,165.3,94.7z"/>
<path d="M545.4,86.7c-1.5-10.4-8.9-15.1-15.9-15.1c-6.9,0-14.4,5.2-15.9,15.1C513.8,86.7,545.5,86.7,545.4,86.7z M561.8,115.2
	c-2,5.8-8.4,22.6-31.7,22.6c-10.9,0-18.8-3.5-25.3-11c-7.4-8.1-10.4-18-10.4-29.6c0-15.1,5.5-24.4,9.9-30.2c7.9-8.7,16.8-11,25.3-11
	c13.4,0,21.3,6.4,25.8,12.8c6.9,9.9,7.9,21.5,7.9,30.2v1.7h-49.5c0,4.6,1,9.3,3.5,12.8c2,2.9,5.9,7,13.4,7c6.9,0,12.4-4.1,15.4-9.9
	L561.8,115.2L561.8,115.2z M288.7,86.7c-1.5-10.4-8.9-15.1-15.9-15.1s-14.4,5.2-15.9,15.1H288.7z M305.2,115.2
	c-2,5.8-8.4,22.6-31.7,22.6c-10.9,0-18.8-3.5-25.3-11c-7.4-8.1-10.4-18-10.4-29.6c0-15.1,5.5-24.4,9.9-30.2c7.9-8.7,16.8-11,25.3-11
	c13.4,0,21.3,6.4,25.8,12.8c6.9,9.9,7.9,21.5,7.9,30.2v1.7h-49.5c0,4.6,1,9.3,3.5,12.8c2,2.9,5.9,7,13.4,7c6.9,0,12.4-4.1,15.4-9.9
	C289.3,110.4,305.2,115.2,305.2,115.2z M408.1,57.7h20.3v12.8c4-5.2,10.4-13.9,22.3-13.9c14.9,0,23.3,9.3,23.3,33.6v45.8h-19.3V91.4
	c0-9.3-4-15.1-9.9-15.1c-6.9,0-12.9,4.6-16.4,9.9v48.7h-20.3V57.7z M651,127.4l5.5-16.8c7.4,6.4,18.3,9.9,24.8,9.9
	c5.9,0,8.4-2.3,8.4-5.8V114c0-4.6-6.9-6.4-14.4-9.3c-9.9-3.5-20.8-8.1-20.8-23.8S665.9,56,679.7,56c8.9,0,16.8,2.3,24.3,7.5l-4,16.8
	c-6.9-4.6-15.4-7.5-20.3-7.5s-7.4,2.3-7.4,5.2v0.6c0,4.6,6.4,6.4,13.9,9.3c9.9,3.5,20.8,8.7,20.8,23.2v0.6
	c0,17.4-11.4,25.5-26.8,25.5C671.2,137.2,660.3,135.5,651,127.4L651,127.4z M580.7,127.4l5.5-16.8c7.4,6.4,18.3,9.9,24.8,9.9
	c5.5,0,8.4-2.3,8.4-5.8V114c0-4.6-6.9-6.4-14.4-9.3c-9.9-3.5-20.8-8.1-20.8-23.8S595.5,56,609.4,56c8.9,0,16.8,2.3,24.3,7.5l-4,16.8
	c-6.9-4.6-15.4-7.5-20.3-7.5S602,75.1,602,78v0.6c0,4.6,6.4,6.4,13.9,9.3c9.9,3.5,20.8,8.7,20.8,23.2v0.6
	c0,17.4-11.4,25.5-26.8,25.5C600.9,137.2,590,135.5,580.7,127.4z M352.7,80.4l13.9-22.6h21.8L363.2,96l26.3,40h-22.8l-14.9-24.4
	l-14.9,24.4h-21.8l26.8-40l-25.3-38.3h22.8L352.7,80.4z"/>
</svg>
